<svg width="253" height="102" viewBox="0 0 253 102" fill="none" xmlns="http://www.w3.org/2000/svg">
<path d="M99.9999 23.5615C99.6029 22.194 99.0315 20.8832 98.2999 19.6615C96.8684 17.2501 94.8355 15.2516 92.3999 13.8615C91.1709 13.1694 89.861 12.632 88.4999 12.2615C85.6181 11.4844 82.5818 11.4844 79.6999 12.2615C78.3393 12.633 77.0294 13.1703 75.7999 13.8615C72.674 15.6277 70.2282 18.3881 68.8511 21.7038C67.4741 25.0196 67.2449 28.7005 68.1999 32.1615C68.5943 33.4985 69.1661 34.7765 69.8999 35.9615C71.3421 38.3646 73.3726 40.3606 75.7999 41.7615C78.9462 43.5967 82.6086 44.3462 86.2228 43.8944C89.837 43.4426 93.2023 41.8147 95.7999 39.2615C96.801 38.3115 97.6749 37.2359 98.3999 36.0615C99.1277 34.8733 99.6991 33.596 100.1 32.2615C100.895 29.45 100.895 26.4731 100.1 23.6615" fill="url(#paint0_linear_148_87)"/>
<path d="M136.4 9.4616C136.101 8.37708 135.664 7.3353 135.1 6.3616C133.953 4.45078 132.335 2.86676 130.4 1.76159C129.392 1.19499 128.317 0.758193 127.2 0.461595C124.907 -0.153865 122.493 -0.153865 120.2 0.461595C119.083 0.758193 118.008 1.19499 117 1.76159C116.017 2.30769 115.109 2.98006 114.3 3.76159C113.492 4.53504 112.786 5.40882 112.2 6.3616C111.312 7.85134 110.738 9.50718 110.515 11.227C110.291 12.9469 110.422 14.6943 110.9 16.3616C111.192 17.4487 111.629 18.4915 112.2 19.4616C113.353 21.3669 114.97 22.9493 116.9 24.0616C119.423 25.5101 122.348 26.0983 125.234 25.7375C128.121 25.3767 130.812 24.0864 132.9 22.0616C134.545 20.4811 135.731 18.4835 136.329 16.282C136.928 14.0805 136.918 11.7578 136.3 9.56159" fill="url(#paint1_linear_148_87)"/>
<path d="M168.6 17.0616C168.364 16.256 168.028 15.4833 167.6 14.7616C166.728 13.2992 165.486 12.0921 164 11.2616C163.245 10.8283 162.439 10.4922 161.6 10.2616C159.864 9.79463 158.036 9.79463 156.3 10.2616C155.461 10.4922 154.654 10.8283 153.9 11.2616C153.171 11.6723 152.498 12.1766 151.9 12.7616C151.317 13.3615 150.812 14.0337 150.4 14.7616C149.734 15.8788 149.302 17.1197 149.13 18.409C148.958 19.6982 149.05 21.009 149.4 22.2616C149.628 23.0699 149.964 23.8436 150.4 24.5616C151.279 26.0183 152.519 27.2237 154 28.0616C155.894 29.1399 158.086 29.5765 160.249 29.3061C162.412 29.0358 164.429 28.073 166 26.5616C166.585 25.9632 167.089 25.2908 167.5 24.5616C167.93 23.841 168.266 23.068 168.5 22.2616C168.984 20.562 168.984 18.7612 168.5 17.0616" fill="url(#paint2_linear_148_87)"/>
<path d="M189.3 36.6616C189.13 36.1342 188.895 35.6303 188.6 35.1616C188.325 34.6866 187.989 34.2495 187.6 33.8616L186.3 32.8616L184.7 32.2616C183.553 31.9562 182.347 31.9562 181.2 32.2616L179.6 32.8616L178.3 33.8616C177.914 34.2517 177.578 34.6884 177.3 35.1616C176.85 35.904 176.556 36.7301 176.436 37.5897C176.316 38.4493 176.372 39.3243 176.6 40.1616C176.765 40.6907 177.001 41.1952 177.3 41.6616C177.891 42.6205 178.717 43.4123 179.7 43.9616C180.71 44.522 181.845 44.816 183 44.816C184.155 44.816 185.29 44.522 186.3 43.9616L187.6 42.9616C187.989 42.5737 188.325 42.1367 188.6 41.6616C188.896 41.1935 189.132 40.6894 189.3 40.1616C189.612 39.0497 189.612 37.8735 189.3 36.7616" fill="url(#paint3_linear_148_87)"/>
<path d="M0 53.2616H34V64.2616H12.6V74.0616H28.7V84.5616H12.6V100.562H0V53.2616Z" fill="white"/>
<path d="M89.9 70.2616C89.2923 68.159 88.4186 66.1427 87.3 64.2616C85.0677 60.513 81.8967 57.411 78.1 55.2616C76.1786 54.1776 74.1295 53.3378 72 52.7616C67.5457 51.5645 62.8543 51.5645 58.4 52.7616C56.2705 53.3378 54.2213 54.1776 52.3 55.2616C50.4037 56.3288 48.6555 57.64 47.1 59.1616C45.5543 60.6838 44.2101 62.3978 43.1 64.2616C41.3758 67.1323 40.2559 70.3247 39.8089 73.6434C39.3618 76.962 39.597 80.337 40.5 83.5616C41.0912 85.67 41.9659 87.6884 43.1 89.5616C45.367 93.2567 48.5318 96.3183 52.3 98.4616C57.1919 101.259 62.8601 102.391 68.4512 101.687C74.0422 100.984 79.2534 98.4833 83.3 94.5616C84.8455 93.0763 86.1902 91.3954 87.3 89.5616C88.4256 87.6841 89.2998 85.6668 89.9 83.5616C91.1212 79.2124 91.1212 74.6108 89.9 70.2616Z" fill="white"/>
<path d="M126 99.3616L126.6 100.562H140.8L139.7 98.4616L139.1 97.3616L130.7 81.9616C131.894 81.3003 133.003 80.4942 134 79.5616C135.963 77.7349 137.411 75.4244 138.2 72.8616C138.602 71.5322 138.804 70.1504 138.8 68.7616C138.797 66.692 138.354 64.6468 137.5 62.7616C136.695 60.9235 135.54 59.2594 134.1 57.8616C132.62 56.4536 130.891 55.3344 129 54.5616C127.002 53.7431 124.859 53.335 122.7 53.3616H100.2V100.662H112.8V84.8616H118.1L126 99.3616ZM112.8 62.9616H120.8C121.506 63.0631 122.185 63.3008 122.8 63.6616C123.405 63.9976 123.947 64.4377 124.4 64.9616C124.822 65.4712 125.159 66.0452 125.4 66.6616C125.645 67.2662 125.78 67.9095 125.8 68.5616C125.81 69.2402 125.709 69.9158 125.5 70.5616C125.298 71.1751 124.994 71.75 124.6 72.2616C123.71 73.3253 122.468 74.0348 121.1 74.2616H113.1L112.8 62.9616Z" fill="white"/>
<path d="M252.9 99.3616C252.892 99.3288 252.892 99.2944 252.9 99.2616V99.0616C252.033 90.3283 251.133 81.6616 250.2 73.0616C249.467 66.4616 248.767 59.8283 248.1 53.1616H234.2L233.8 54.3616L232.2 59.4616L230 66.4616L224.8 83.1616L216 54.4616L215.6 53.2616H202.1L197 99.1616L196.8 100.562H209L209.2 99.1616L212 74.5616L219.3 99.2616L219.7 100.462H230.1L230.5 99.2616L237.9 74.4616L240.7 99.0616V100.562H253V99.3616" fill="white"/>
<path d="M168.8 101.462C166.2 101.474 163.61 101.137 161.1 100.462C158.685 99.8048 156.436 98.6462 154.5 97.0616C152.503 95.3826 150.928 93.2592 149.9 90.8616C148.701 87.9462 148.122 84.813 148.2 81.6616V53.2616H156.7V81.7616C156.649 83.6444 156.989 85.5173 157.7 87.2616C158.283 88.6141 159.174 89.8123 160.3 90.7616C161.41 91.6904 162.706 92.3721 164.1 92.7616C167.211 93.5979 170.488 93.5979 173.6 92.7616C174.994 92.3721 176.289 91.6904 177.4 90.7616C178.526 89.8123 179.416 88.6141 180 87.2616C180.708 85.5165 181.048 83.6442 181 81.7616V53.2616H189.5V81.5616C189.578 84.713 188.999 87.8462 187.8 90.7616C186.772 93.1592 185.196 95.2826 183.2 96.9616C181.263 98.5462 179.014 99.7048 176.6 100.362C174.089 101.037 171.5 101.374 168.9 101.362L168.8 101.462Z" fill="white"/>
<defs>
<linearGradient id="paint0_linear_148_87" x1="73.8999" y1="45.9115" x2="93.0599" y2="11.9315" gradientUnits="userSpaceOnUse">
<stop stop-color="#888888"/>
<stop offset="1" stop-color="#EBEBEB"/>
</linearGradient>
<linearGradient id="paint1_linear_148_87" x1="130.22" y1="-0.978405" x2="117.36" y2="26.2616" gradientUnits="userSpaceOnUse">
<stop stop-color="#D6F228"/>
<stop offset="1" stop-color="#68A407"/>
</linearGradient>
<linearGradient id="paint2_linear_148_87" x1="152.6" y1="26.9016" x2="165.59" y2="12.3616" gradientUnits="userSpaceOnUse">
<stop stop-color="#FEC431"/>
<stop offset="1" stop-color="#F2F53B"/>
</linearGradient>
<linearGradient id="paint3_linear_148_87" x1="177.47" y1="44.9816" x2="188.2" y2="31.9416" gradientUnits="userSpaceOnUse">
<stop stop-color="#F52740"/>
<stop offset="1" stop-color="#FF8EB0"/>
</linearGradient>
</defs>
</svg>
