<svg width="180" height="79" viewBox="0 0 180 79" fill="none" xmlns="http://www.w3.org/2000/svg">
<path d="M17.5015 27L11.7415 18.9C11.0935 18.972 10.4215 19.008 9.72545 19.008H2.95745V27H0.293453V1.8H9.72545C12.9415 1.8 15.4615 2.568 17.2855 4.104C19.1095 5.64 20.0215 7.752 20.0215 10.44C20.0215 12.408 19.5175 14.076 18.5095 15.444C17.5255 16.788 16.1095 17.76 14.2615 18.36L20.4175 27H17.5015ZM9.65345 16.74C12.1495 16.74 14.0575 16.188 15.3775 15.084C16.6975 13.98 17.3575 12.432 17.3575 10.44C17.3575 8.4 16.6975 6.84 15.3775 5.76C14.0575 4.656 12.1495 4.104 9.65345 4.104H2.95745V16.74H9.65345ZM42.2571 18.324H26.4171C26.5611 20.292 27.3171 21.888 28.6851 23.112C30.0531 24.312 31.7811 24.912 33.8691 24.912C35.0451 24.912 36.1251 24.708 37.1091 24.3C38.0931 23.868 38.9451 23.244 39.6651 22.428L41.1051 24.084C40.2651 25.092 39.2091 25.86 37.9371 26.388C36.6891 26.916 35.3091 27.18 33.7971 27.18C31.8531 27.18 30.1251 26.772 28.6131 25.956C27.1251 25.116 25.9611 23.964 25.1211 22.5C24.2811 21.036 23.8611 19.38 23.8611 17.532C23.8611 15.684 24.2571 14.028 25.0491 12.564C25.8651 11.1 26.9691 9.96 28.3611 9.144C29.7771 8.328 31.3611 7.92 33.1131 7.92C34.8651 7.92 36.4371 8.328 37.8291 9.144C39.2211 9.96 40.3131 11.1 41.1051 12.564C41.8971 14.004 42.2931 15.66 42.2931 17.532L42.2571 18.324ZM33.1131 10.116C31.2891 10.116 29.7531 10.704 28.5051 11.88C27.2811 13.032 26.5851 14.544 26.4171 16.416H39.8451C39.6771 14.544 38.9691 13.032 37.7211 11.88C36.4971 10.704 34.9611 10.116 33.1131 10.116ZM52.5716 27.18C51.0356 27.18 49.5596 26.964 48.1436 26.532C46.7516 26.076 45.6596 25.512 44.8676 24.84L46.0196 22.824C46.8116 23.448 47.8076 23.964 49.0076 24.372C50.2076 24.756 51.4556 24.948 52.7516 24.948C54.4796 24.948 55.7516 24.684 56.5676 24.156C57.4076 23.604 57.8276 22.836 57.8276 21.852C57.8276 21.156 57.5996 20.616 57.1436 20.232C56.6876 19.824 56.1116 19.524 55.4156 19.332C54.7196 19.116 53.7956 18.912 52.6436 18.72C51.1076 18.432 49.8716 18.144 48.9356 17.856C47.9996 17.544 47.1956 17.028 46.5236 16.308C45.8756 15.588 45.5516 14.592 45.5516 13.32C45.5516 11.736 46.2116 10.44 47.5316 9.432C48.8516 8.424 50.6876 7.92 53.0396 7.92C54.2636 7.92 55.4876 8.088 56.7116 8.424C57.9356 8.736 58.9436 9.156 59.7356 9.684L58.6196 11.736C57.0596 10.656 55.1996 10.116 53.0396 10.116C51.4076 10.116 50.1716 10.404 49.3316 10.98C48.5156 11.556 48.1076 12.312 48.1076 13.248C48.1076 13.968 48.3356 14.544 48.7916 14.976C49.2716 15.408 49.8596 15.732 50.5556 15.948C51.2516 16.14 52.2116 16.344 53.4356 16.56C54.9476 16.848 56.1596 17.136 57.0716 17.424C57.9836 17.712 58.7636 18.204 59.4116 18.9C60.0596 19.596 60.3836 20.556 60.3836 21.78C60.3836 23.436 59.6876 24.756 58.2956 25.74C56.9276 26.7 55.0196 27.18 52.5716 27.18ZM75.0809 25.848C74.6009 26.28 74.0009 26.616 73.2809 26.856C72.5849 27.072 71.8529 27.18 71.0849 27.18C69.3089 27.18 67.9409 26.7 66.9809 25.74C66.0209 24.78 65.5409 23.424 65.5409 21.672V10.224H62.1569V8.064H65.5409V3.924H68.0969V8.064H73.8569V10.224H68.0969V21.528C68.0969 22.656 68.3729 23.52 68.9249 24.12C69.5009 24.696 70.3169 24.984 71.3729 24.984C71.9009 24.984 72.4049 24.9 72.8849 24.732C73.3889 24.564 73.8209 24.324 74.1809 24.012L75.0809 25.848ZM86.806 27.18C84.982 27.18 83.338 26.772 81.874 25.956C80.41 25.116 79.258 23.964 78.418 22.5C77.578 21.036 77.158 19.38 77.158 17.532C77.158 15.684 77.578 14.028 78.418 12.564C79.258 11.1 80.41 9.96 81.874 9.144C83.338 8.328 84.982 7.92 86.806 7.92C88.63 7.92 90.274 8.328 91.738 9.144C93.202 9.96 94.342 11.1 95.158 12.564C95.998 14.028 96.418 15.684 96.418 17.532C96.418 19.38 95.998 21.036 95.158 22.5C94.342 23.964 93.202 25.116 91.738 25.956C90.274 26.772 88.63 27.18 86.806 27.18ZM86.806 24.912C88.15 24.912 89.35 24.612 90.406 24.012C91.486 23.388 92.326 22.512 92.926 21.384C93.526 20.256 93.826 18.972 93.826 17.532C93.826 16.092 93.526 14.808 92.926 13.68C92.326 12.552 91.486 11.688 90.406 11.088C89.35 10.464 88.15 10.152 86.806 10.152C85.462 10.152 84.25 10.464 83.17 11.088C82.114 11.688 81.274 12.552 80.65 13.68C80.05 14.808 79.75 16.092 79.75 17.532C79.75 18.972 80.05 20.256 80.65 21.384C81.274 22.512 82.114 23.388 83.17 24.012C84.25 24.612 85.462 24.912 86.806 24.912ZM111.392 7.92C113.168 7.92 114.776 8.328 116.216 9.144C117.656 9.936 118.784 11.064 119.6 12.528C120.416 13.992 120.824 15.66 120.824 17.532C120.824 19.428 120.416 21.108 119.6 22.572C118.784 24.036 117.656 25.176 116.216 25.992C114.8 26.784 113.192 27.18 111.392 27.18C109.856 27.18 108.464 26.868 107.216 26.244C105.992 25.596 104.984 24.66 104.192 23.436V33.984H101.636V8.064H104.084V11.808C104.852 10.56 105.86 9.6 107.108 8.928C108.38 8.256 109.808 7.92 111.392 7.92ZM111.212 24.912C112.532 24.912 113.732 24.612 114.812 24.012C115.892 23.388 116.732 22.512 117.332 21.384C117.956 20.256 118.268 18.972 118.268 17.532C118.268 16.092 117.956 14.82 117.332 13.716C116.732 12.588 115.892 11.712 114.812 11.088C113.732 10.464 112.532 10.152 111.212 10.152C109.868 10.152 108.656 10.464 107.576 11.088C106.52 11.712 105.68 12.588 105.056 13.716C104.456 14.82 104.156 16.092 104.156 17.532C104.156 18.972 104.456 20.256 105.056 21.384C105.68 22.512 106.52 23.388 107.576 24.012C108.656 24.612 109.868 24.912 111.212 24.912ZM132.553 7.92C135.025 7.92 136.921 8.544 138.241 9.792C139.561 11.016 140.221 12.84 140.221 15.264V27H137.773V24.048C137.197 25.032 136.345 25.8 135.217 26.352C134.113 26.904 132.793 27.18 131.257 27.18C129.145 27.18 127.465 26.676 126.217 25.668C124.969 24.66 124.345 23.328 124.345 21.672C124.345 20.064 124.921 18.768 126.073 17.784C127.249 16.8 129.109 16.308 131.653 16.308H137.665V15.156C137.665 13.524 137.209 12.288 136.297 11.448C135.385 10.584 134.053 10.152 132.301 10.152C131.101 10.152 129.949 10.356 128.845 10.764C127.741 11.148 126.793 11.688 126.001 12.384L124.849 10.476C125.809 9.66 126.961 9.036 128.305 8.604C129.649 8.148 131.065 7.92 132.553 7.92ZM131.653 25.164C133.093 25.164 134.329 24.84 135.361 24.192C136.393 23.52 137.161 22.56 137.665 21.312V18.216H131.725C128.485 18.216 126.865 19.344 126.865 21.6C126.865 22.704 127.285 23.58 128.125 24.228C128.965 24.852 130.141 25.164 131.653 25.164ZM149.612 11.772C150.212 10.5 151.1 9.54 152.276 8.892C153.476 8.244 154.952 7.92 156.704 7.92V10.404L156.092 10.368C154.1 10.368 152.54 10.98 151.412 12.204C150.284 13.428 149.72 15.144 149.72 17.352V27H147.164V8.064H149.612V11.772ZM168.352 17.496L163.888 21.6V27H161.332V0.287998H163.888V18.396L175.192 8.064H178.36L170.26 15.804L179.116 27H175.984L168.352 17.496ZM48.0721 64.268H34.0321L31.0081 71H28.2361L39.7561 45.8H42.3841L53.9041 71H51.0961L48.0721 64.268ZM47.1001 62.108L41.0521 48.572L35.0041 62.108H47.1001ZM57.5328 44.288H60.0888V71H57.5328V44.288ZM90.8167 51.92C93.1927 51.92 95.0527 52.604 96.3967 53.972C97.7647 55.34 98.4487 57.356 98.4487 60.02V71H95.8927V60.272C95.8927 58.304 95.4127 56.804 94.4527 55.772C93.5167 54.74 92.1847 54.224 90.4567 54.224C88.4887 54.224 86.9407 54.836 85.8127 56.06C84.6847 57.26 84.1207 58.928 84.1207 61.064V71H81.5647V60.272C81.5647 58.304 81.0847 56.804 80.1247 55.772C79.1887 54.74 77.8447 54.224 76.0927 54.224C74.1487 54.224 72.6007 54.836 71.4487 56.06C70.3207 57.26 69.7567 58.928 69.7567 61.064V71H67.2007V52.064H69.6487V55.52C70.3207 54.368 71.2567 53.48 72.4567 52.856C73.6567 52.232 75.0367 51.92 76.5967 51.92C78.1807 51.92 79.5487 52.256 80.7007 52.928C81.8767 53.6 82.7527 54.596 83.3287 55.916C84.0247 54.668 85.0207 53.696 86.3167 53C87.6367 52.28 89.1367 51.92 90.8167 51.92ZM112.004 51.92C114.476 51.92 116.372 52.544 117.692 53.792C119.012 55.016 119.672 56.84 119.672 59.264V71H117.224V68.048C116.648 69.032 115.796 69.8 114.668 70.352C113.564 70.904 112.244 71.18 110.708 71.18C108.596 71.18 106.916 70.676 105.668 69.668C104.42 68.66 103.796 67.328 103.796 65.672C103.796 64.064 104.372 62.768 105.524 61.784C106.7 60.8 108.56 60.308 111.104 60.308H117.116V59.156C117.116 57.524 116.66 56.288 115.748 55.448C114.836 54.584 113.504 54.152 111.752 54.152C110.552 54.152 109.4 54.356 108.296 54.764C107.192 55.148 106.244 55.688 105.452 56.384L104.3 54.476C105.26 53.66 106.412 53.036 107.756 52.604C109.1 52.148 110.516 51.92 112.004 51.92ZM111.104 69.164C112.544 69.164 113.78 68.84 114.812 68.192C115.844 67.52 116.612 66.56 117.116 65.312V62.216H111.176C107.936 62.216 106.316 63.344 106.316 65.6C106.316 66.704 106.736 67.58 107.576 68.228C108.416 68.852 109.592 69.164 111.104 69.164ZM136.587 69.848C136.107 70.28 135.507 70.616 134.787 70.856C134.091 71.072 133.359 71.18 132.591 71.18C130.815 71.18 129.447 70.7 128.487 69.74C127.527 68.78 127.047 67.424 127.047 65.672V54.224H123.663V52.064H127.047V47.924H129.603V52.064H135.363V54.224H129.603V65.528C129.603 66.656 129.879 67.52 130.431 68.12C131.007 68.696 131.823 68.984 132.879 68.984C133.407 68.984 133.911 68.9 134.391 68.732C134.895 68.564 135.327 68.324 135.687 68.012L136.587 69.848ZM156.8 52.064L147.332 73.268C146.564 75.044 145.676 76.304 144.668 77.048C143.66 77.792 142.448 78.164 141.032 78.164C140.12 78.164 139.268 78.02 138.476 77.732C137.684 77.444 137 77.012 136.424 76.436L137.612 74.528C138.572 75.488 139.724 75.968 141.068 75.968C141.932 75.968 142.664 75.728 143.264 75.248C143.888 74.768 144.464 73.952 144.992 72.8L145.82 70.964L137.36 52.064H140.024L147.152 68.156L154.28 52.064H156.8Z" fill="white"/>
</svg>
